<svg width="140" height="146" viewBox="0 0 140 146" fill="none" xmlns="http://www.w3.org/2000/svg">
<path d="M139.801 37.1846L70.0332 73.1615V145.101L139.801 111.311V37.1846Z" fill="#FCBD2C"/>
<path d="M139.8 37.4932L76.8301 76.4273L139.8 46.533" fill="#F18331"/>
<path d="M139.8 46.5317L76.8301 85.4519L139.8 55.5575" fill="#F18331"/>
<path d="M139.8 55.4038L76.8301 94.338L139.8 64.4296" fill="#F18331"/>
<path d="M139.8 64.4299L76.8301 103.364L139.8 73.4697" fill="#F18331"/>
<path d="M139.8 73.4702L76.8301 112.404L139.8 82.496" fill="#F18331"/>
<path d="M139.8 82.4963L76.8301 121.431L139.8 91.5361" fill="#F18331"/>
<path d="M139.8 91.3806L76.8301 130.301L139.8 100.406" fill="#F18331"/>
<path d="M139.8 100.407L76.8301 139.341L139.8 109.433" fill="#F18331"/>
<path d="M0.267578 37.1846V37.4929L63.2378 76.4271L0.267578 46.5327L63.2378 85.4529L1.34675 56.077L63.2378 94.3385L0.267578 64.4301L63.2378 103.364L0.267578 73.4699L63.2378 112.404L0.267578 82.4957L63.2378 121.43L1.36076 92.04L63.2378 130.301L0.267578 100.407L63.2378 139.341L0.267578 109.433V111.311L70.0352 145.101V73.1615L0.267578 37.1846Z" fill="#FEEC2F"/>
<path d="M137.28 36.1751V36.2032L75.3469 68.1718L129.558 32.1248L128.492 31.5641L75.0386 59.146L121.793 28.0463L119.817 27.0092L74.7443 50.2744L114.169 24.052L110.988 22.3842L74.4499 41.2486L106.419 19.9876L102.172 17.7592L74.1556 32.2229L98.6682 15.9232L93.3564 13.1342L73.8473 23.1971L90.9038 11.8448L84.681 8.57925L73.553 14.3255L83.2795 7.85046L75.8515 3.95424L73.2587 5.29969L75.5291 3.78605L70.0352 0.898926L0.267578 37.4926L70.0352 73.4695L139.803 37.4926L137.28 36.1751Z" fill="#0087C1"/>
</svg>
