<svg width="31" height="46" viewBox="0 0 31 46" fill="none" xmlns="http://www.w3.org/2000/svg">
<g clip-path="url(#clip0_1123_515)">
<path d="M15.7661 0.749023C15.9159 0.790272 16.0644 0.846701 16.2112 0.876401C17.3771 1.12687 18.2593 1.78356 18.8144 2.78344C19.2791 3.62691 19.6679 4.51295 20.0073 5.41054C22.7655 12.7546 25.504 20.1062 28.2442 27.4562C28.4865 28.1036 28.4487 28.1894 27.7816 28.4439C26.427 28.9577 25.0744 29.4751 23.7215 29.9889C23.2072 30.1856 23.0591 30.1242 22.8741 29.617C22.2812 28.0347 21.691 26.4556 21.1244 24.8684C21.0157 24.5611 20.8773 24.4374 20.5213 24.4407C16.8966 24.4542 13.2681 24.4542 9.6431 24.4407C9.31812 24.4407 9.16997 24.5314 9.06299 24.8321C8.47951 26.4312 7.87646 28.0231 7.28016 29.6183C7.09523 30.1242 6.95383 30.1843 6.43312 29.9856C5.06503 29.4698 3.70436 28.9511 2.33661 28.431C1.73356 28.2036 1.67417 28.0779 1.89183 27.4885C3.94498 21.9938 5.99779 16.4977 8.04924 11.0003C8.87199 8.80256 9.68865 6.60149 10.5144 4.40537C10.8472 3.53616 11.2541 2.70788 11.9088 2.01687C12.5234 1.3681 13.281 0.97441 14.1806 0.835482C14.2515 0.825252 14.3173 0.777733 14.3899 0.749353C14.8465 0.749023 15.3017 0.749023 15.7661 0.749023ZM19.0915 19.3225C17.7568 15.4127 16.4413 11.56 15.1269 7.70367C15.0921 7.70928 15.0547 7.7106 15.023 7.7139C13.7129 11.5682 12.3965 15.4223 11.0682 19.3225C13.7689 19.3225 16.3924 19.3225 19.0915 19.3225Z" fill="#4F4F4F"/>
<path d="M15.0767 44.5006C10.5223 44.5006 5.96109 44.5006 1.40226 44.5006C0.810678 44.5006 0.733398 44.4168 0.733398 43.8386C0.733398 42.3335 0.733398 40.8317 0.733398 39.3283C0.733398 38.8125 0.842062 38.6953 1.36615 38.6953C10.5111 38.6934 19.6528 38.6934 28.7947 38.6953C29.3151 38.6953 29.4308 38.8141 29.4308 39.3283C29.4356 40.8462 29.4356 42.3639 29.4308 43.8819C29.4308 44.3976 29.3222 44.5006 28.791 44.5006C24.2187 44.5006 19.6477 44.5006 15.0767 44.5006Z" fill="#4F4F4F"/>
</g>
<defs>
<clipPath id="clip0_1123_515">
<rect width="30" height="45" fill="white" transform="translate(0.370117 0.108398)"/>
</clipPath>
</defs>
</svg>
