<svg width="120" height="28" viewBox="0 0 120 28" fill="none" xmlns="http://www.w3.org/2000/svg">
<g clip-path="url(#clip0_1123_518)">
<path d="M119.369 12.3991V10.3063H116.771V7.05281L116.683 7.07974L114.242 7.82661L114.194 7.84123V10.3064H110.341V8.9331C110.341 8.29363 110.484 7.80428 110.766 7.47793C111.046 7.15549 111.446 6.99156 111.957 6.99156C112.324 6.99156 112.704 7.07802 113.086 7.2485L113.182 7.29132V5.08733L113.137 5.07075C112.78 4.94251 112.295 4.87793 111.693 4.87793C110.935 4.87793 110.247 5.04289 109.646 5.36982C109.045 5.69721 108.572 6.16458 108.241 6.7588C107.911 7.35234 107.743 8.03785 107.743 8.79646V10.3063H105.934V12.3991H107.743V21.2157H110.341V12.3991H114.194V18.0019C114.194 20.3094 115.282 21.4787 117.429 21.4787C117.782 21.4787 118.153 21.4374 118.532 21.3565C118.918 21.2733 119.181 21.1903 119.335 21.1017L119.37 21.0814V18.9693L119.264 19.0392C119.123 19.1331 118.947 19.2099 118.741 19.267C118.535 19.3251 118.362 19.3543 118.228 19.3543C117.725 19.3543 117.353 19.2188 117.123 18.9514C116.889 18.6815 116.771 18.2097 116.771 17.5496V12.3991H119.369ZM100.133 19.3546C99.1896 19.3546 98.4461 19.042 97.9222 18.4261C97.3951 17.8071 97.1281 16.9246 97.1281 15.8034C97.1281 14.6466 97.3951 13.7412 97.9225 13.1113C98.4467 12.4856 99.183 12.168 100.111 12.168C101.012 12.168 101.729 12.4713 102.243 13.07C102.759 13.6718 103.021 14.57 103.021 15.7402C103.021 16.9249 102.774 17.8349 102.289 18.4436C101.806 19.0477 101.081 19.3546 100.133 19.3546ZM100.248 10.0435C98.449 10.0435 97.0202 10.5706 96.0014 11.6102C94.9834 12.6499 94.4672 14.0888 94.4672 15.8871C94.4672 17.5952 94.971 18.9691 95.9649 19.97C96.9588 20.9713 98.3115 21.4785 99.9849 21.4785C101.729 21.4785 103.129 20.944 104.147 19.89C105.165 18.8372 105.681 17.4119 105.681 15.6556C105.681 13.9208 105.197 12.5367 104.242 11.5424C103.287 10.5477 101.942 10.0435 100.248 10.0435ZM90.2787 10.0435C89.055 10.0435 88.0428 10.3565 87.2696 10.9736C86.4916 11.5945 86.097 12.4087 86.097 13.3939C86.097 13.9061 86.1822 14.361 86.3498 14.7469C86.5185 15.134 86.7794 15.4749 87.1262 15.7609C87.4702 16.0447 88.0014 16.3419 88.7052 16.6443C89.2969 16.8878 89.7381 17.0937 90.0184 17.2561C90.2924 17.4151 90.4868 17.575 90.5966 17.7308C90.7034 17.8832 90.7575 18.0918 90.7575 18.3492C90.7575 19.0821 90.2086 19.4388 89.0792 19.4388C88.6603 19.4388 88.1825 19.3513 87.659 19.1788C87.1393 19.009 86.6488 18.7603 86.2047 18.4414L86.0968 18.364V20.8651L86.1364 20.8836C86.504 21.0532 86.9674 21.1963 87.5136 21.3089C88.0588 21.4216 88.5542 21.4789 88.9845 21.4789C90.3123 21.4789 91.3816 21.1644 92.1619 20.5436C92.9471 19.9186 93.345 19.0851 93.345 18.0658C93.345 17.3304 93.1308 16.6998 92.7086 16.1912C92.2892 15.6868 91.5613 15.2237 90.5461 14.8143C89.7373 14.4897 89.2192 14.2202 89.0054 14.0134C88.7994 13.8135 88.6947 13.5309 88.6947 13.173C88.6947 12.8558 88.8239 12.6016 89.089 12.3958C89.3562 12.1889 89.7281 12.0837 90.1946 12.0837C90.6274 12.0837 91.0702 12.1521 91.5107 12.2861C91.9508 12.4201 92.3373 12.5995 92.66 12.819L92.7661 12.8916V10.519L92.7254 10.5015C92.4277 10.3739 92.0351 10.2646 91.5583 10.176C91.0837 10.0879 90.6532 10.0435 90.2787 10.0435ZM79.3247 19.3546C78.382 19.3546 77.6383 19.042 77.1146 18.4261C76.5873 17.8071 76.3207 16.9249 76.3207 15.8034C76.3207 14.6466 76.5877 13.7412 77.1152 13.1113C77.6389 12.4856 78.3751 12.168 79.3038 12.168C80.2043 12.168 80.9213 12.4713 81.4351 13.07C81.9514 13.6718 82.2133 14.57 82.2133 15.7402C82.2133 16.9249 81.9668 17.8349 81.481 18.4436C80.9986 19.0477 80.2735 19.3546 79.3247 19.3546ZM79.4405 10.0435C77.6411 10.0435 76.2122 10.5706 75.194 11.6102C74.1759 12.6499 73.6594 14.0888 73.6594 15.8871C73.6594 17.5959 74.1636 18.9691 75.1575 19.97C76.1514 20.9713 77.5039 21.4785 79.1773 21.4785C80.9209 21.4785 82.3216 20.944 83.3399 19.89C84.3579 18.8372 84.8739 17.4119 84.8739 15.6556C84.8739 13.9208 84.3897 12.5367 83.4344 11.5424C82.4786 10.5477 81.1347 10.0435 79.4405 10.0435ZM69.716 12.1956V10.3063H67.1499V21.2154H69.716V15.635C69.716 14.6861 69.9312 13.9065 70.3557 13.3177C70.7748 12.7359 71.3334 12.4411 72.0153 12.4411C72.2465 12.4411 72.5059 12.4792 72.7869 12.5546C73.0651 12.6296 73.2665 12.711 73.3853 12.7966L73.4932 12.8748V10.2877L73.4516 10.2698C73.2126 10.1683 72.8745 10.1171 72.4468 10.1171C71.8019 10.1171 71.2248 10.3243 70.7305 10.7322C70.2966 11.0908 69.9831 11.5825 69.7433 12.1956H69.716ZM62.5543 10.0435C61.377 10.0435 60.327 10.2959 59.4338 10.7936C58.5388 11.2924 57.8466 12.0045 57.3756 12.91C56.9068 13.8133 56.6687 14.8684 56.6687 16.0452C56.6687 17.0759 56.8995 18.0218 57.3557 18.8555C57.8122 19.6905 58.4582 20.3438 59.276 20.7969C60.0926 21.2494 61.0364 21.4788 62.0814 21.4788C63.301 21.4788 64.3422 21.235 65.177 20.7542L65.2107 20.7348V18.3838L65.1029 18.4626C64.7247 18.738 64.3021 18.9579 63.8474 19.1163C63.3939 19.2746 62.9804 19.3546 62.6178 19.3546C61.6108 19.3546 60.8025 19.0395 60.2158 18.4184C59.6278 17.7964 59.3296 16.923 59.3296 15.824C59.3296 14.7181 59.6405 13.8223 60.2533 13.1613C60.8642 12.5022 61.674 12.168 62.6601 12.168C63.5036 12.168 64.3255 12.4536 65.1031 13.0176L65.2107 13.0958V10.6186L65.176 10.599C64.8833 10.4352 64.4842 10.3 63.9888 10.1974C63.4954 10.0951 63.0128 10.0435 62.5543 10.0435ZM54.9014 10.3064H52.3352V21.2154H54.9014V10.3064ZM53.6445 5.6591C53.2222 5.6591 52.8538 5.80288 52.5512 6.08779C52.2473 6.37351 52.0931 6.73324 52.0931 7.15779C52.0931 7.57566 52.2454 7.92883 52.5464 8.20695C52.8455 8.48426 53.215 8.62482 53.6446 8.62482C54.0741 8.62482 54.445 8.48426 54.7477 8.20741C55.0523 7.92883 55.2068 7.57577 55.2068 7.15779C55.2068 6.74809 55.0564 6.39204 54.7602 6.0993C54.4643 5.80714 54.0888 5.6591 53.6445 5.6591ZM47.2418 9.50154V21.2154H49.8607V5.99305H46.236L41.6289 17.2998L37.1579 5.99305H33.3857V21.2153H35.8468V9.50039H35.9313L40.6525 21.2154H42.5098L47.1573 9.50154H47.2418Z" fill="#4F4F4F"/>
<path d="M12.442 12.9782H0.370117V0.90625H12.442V12.9782Z" fill="#4F4F4F"/>
<path d="M25.7699 12.9782H13.6982V0.90625H25.7699V12.9782Z" fill="#4F4F4F"/>
<path d="M12.4417 26.3115H0.370117V14.2397H12.4417V26.3115Z" fill="#4F4F4F"/>
<path d="M25.7699 26.3115H13.6982V14.2397H25.7699V26.3115Z" fill="#4F4F4F"/>
</g>
<defs>
<clipPath id="clip0_1123_518">
<rect width="119" height="27" fill="white" transform="translate(0.370117 0.108398)"/>
</clipPath>
</defs>
</svg>
