<svg width="127" height="29" viewBox="0 0 127 29" fill="none" xmlns="http://www.w3.org/2000/svg">
<g clip-path="url(#clip0_1123_504)">
<path d="M33.9101 25.1244C33.8928 25.1591 33.88 25.1894 33.8671 25.2111C33.4809 25.8665 33.0387 26.4786 32.5107 27.0255C31.9656 27.5809 31.3561 28.0367 30.6308 28.3275C30.1242 28.5271 29.6048 28.627 29.0596 28.6053C28.7034 28.5923 28.3687 28.5011 28.0424 28.3665C27.4973 28.1452 26.9779 27.8673 26.4672 27.5766C25.1709 26.8258 23.9303 25.9838 22.707 25.1158C22.647 25.0723 22.5826 25.0288 22.5225 24.9812C22.4582 24.9335 22.4323 24.8727 22.4495 24.8119C22.4667 24.7554 22.5268 24.7207 22.6083 24.7207C22.6899 24.7207 22.7714 24.7251 22.8573 24.7295C23.2565 24.7424 23.6514 24.7554 24.0506 24.7728C24.6429 24.7945 25.2352 24.8162 25.8318 24.8336C26.4241 24.8553 27.0166 24.877 27.6132 24.8944C28.2055 24.916 28.7979 24.9377 29.3945 24.9551C29.9911 24.9768 30.5878 24.9985 31.1844 25.0159C31.7767 25.0376 32.369 25.0593 32.9658 25.0767C33.2661 25.0853 33.5624 25.0983 33.8586 25.1114C33.8671 25.12 33.8843 25.12 33.9101 25.1244Z" fill="#4F4F4F"/>
<path d="M3.72949 25.1158C3.87548 25.1114 4.00853 25.1026 4.14157 25.0983C4.67377 25.0809 5.20596 25.0593 5.73398 25.042C6.0474 25.0332 6.35635 25.0246 6.66977 25.0115L8.09058 24.9594C8.41241 24.9471 8.73433 24.937 9.05629 24.9291L10.4641 24.877C10.7648 24.8683 11.0694 24.8597 11.3699 24.8466C11.9107 24.8292 12.4515 24.8075 12.9967 24.7859C13.473 24.7685 13.9496 24.7554 14.426 24.7381C14.5977 24.7337 14.7694 24.7251 14.941 24.7207H15.0741C15.1299 24.7251 15.1729 24.7512 15.19 24.8075C15.2071 24.8597 15.19 24.903 15.1513 24.9421L15.087 24.9941C13.7821 25.9273 12.4602 26.83 11.0694 27.6244C10.6145 27.8848 10.1509 28.1278 9.67004 28.3275C9.16791 28.5402 8.6442 28.6226 8.09907 28.5835C7.60542 28.5445 7.13767 28.4012 6.6912 28.1799C6.14175 27.9064 5.65674 27.5376 5.2189 27.1079C4.6437 26.5436 4.16746 25.9012 3.76386 25.2025C3.75709 25.1719 3.74548 25.1426 3.72949 25.1158Z" fill="#4F4F4F"/>
<path d="M19.3596 13.4273C19.3596 13.0237 19.351 12.6202 19.3596 12.2207C19.381 11.4612 19.4025 10.7017 19.4368 9.94207C19.4583 9.46476 19.497 8.9873 19.5398 8.50999C19.6043 7.75457 19.69 6.99945 19.8059 6.24855C19.9777 5.12884 20.2009 4.01774 20.5271 2.92836C20.7073 2.33803 20.9133 1.75645 21.188 1.20082C21.2739 1.02728 21.3769 0.862342 21.4671 0.69303C21.5058 0.623613 21.553 0.610634 21.6259 0.623613C22.0851 0.714759 22.5444 0.797155 22.9995 0.888446C23.3772 0.966467 23.7463 1.07074 24.1026 1.22255C25.0598 1.62622 25.8239 2.27299 26.4032 3.14099C26.7681 3.68786 27.0342 4.2868 27.1759 4.93357C27.2445 5.24172 27.2703 5.55847 27.2746 5.87536C27.296 6.90393 27.1201 7.90653 26.8283 8.88741C26.5449 9.84232 26.1672 10.7624 25.7594 11.6696C25.2015 12.9022 24.5705 14.1001 23.9094 15.2806C22.7291 17.3769 21.45 19.4126 20.0978 21.4003C20.0763 21.4308 20.0549 21.4655 20.0292 21.4915C19.9948 21.5306 19.9562 21.5523 19.9004 21.5349C19.8774 21.5282 19.8566 21.5154 19.84 21.4979C19.8235 21.4804 19.8117 21.4588 19.8059 21.4352C19.7931 21.383 19.7888 21.3267 19.7845 21.2703C19.7416 20.7754 19.6943 20.2806 19.6558 19.7902C19.6084 19.1956 19.5613 18.6009 19.5184 18.0064C19.489 17.5872 19.4661 17.1676 19.4496 16.7477C19.4196 16.1097 19.3982 15.4716 19.3724 14.8336C19.3681 14.686 19.3681 14.5341 19.3638 14.3865C19.3596 14.0654 19.351 13.7486 19.3467 13.4273H19.3596Z" fill="#4F4F4F"/>
<path d="M18.291 13.5969C18.2739 14.2435 18.261 14.8947 18.2439 15.5413C18.2309 15.9797 18.2138 16.4224 18.1881 16.8608C18.1537 17.46 18.1151 18.059 18.0721 18.6576C18.0463 19.0529 18.0163 19.4479 17.9819 19.8425C17.9477 20.2591 17.9047 20.6802 17.8661 21.0968C17.8575 21.188 17.8489 21.2835 17.8404 21.3746C17.8318 21.4658 17.8017 21.5092 17.7416 21.5266C17.6643 21.5439 17.6172 21.5049 17.5785 21.444C17.4025 21.1875 17.228 20.9301 17.0549 20.6716C15.8874 18.9181 14.7757 17.1299 13.7412 15.2896C13.2262 14.3738 12.7368 13.4493 12.2774 12.5075C11.8053 11.5309 11.3675 10.5414 11.0155 9.51269C10.7923 8.86169 10.6078 8.19756 10.479 7.51623C10.4146 7.1776 10.3802 6.83913 10.3631 6.4919C10.3459 6.14904 10.3545 5.80619 10.389 5.46319C10.4618 4.77748 10.6594 4.13508 10.9941 3.53192C11.5134 2.59858 12.2302 1.87379 13.1747 1.38335C13.6296 1.14477 14.1103 0.984061 14.6083 0.884311C15.0202 0.801769 15.428 0.723749 15.8401 0.641207C15.9088 0.628082 15.9774 0.623853 16.0419 0.610874C16.102 0.602124 16.1406 0.615249 16.1706 0.671541C16.2736 0.858207 16.3852 1.04487 16.4797 1.23592C16.8488 2.00402 17.1021 2.81135 17.3167 3.63604C17.527 4.439 17.6858 5.25056 17.8103 6.07088C17.8919 6.6265 17.9648 7.18213 18.0249 7.74183C18.0851 8.31058 18.1322 8.88342 18.1708 9.45202C18.2095 10.0335 18.2352 10.6152 18.2523 11.1968C18.2696 11.6828 18.2739 12.1689 18.2824 12.6551C18.2867 12.9676 18.2824 13.28 18.2824 13.5925C18.2867 13.5969 18.2867 13.5969 18.291 13.5969Z" fill="#4F4F4F"/>
<path d="M31.6272 5.5459C31.7688 5.68911 31.9019 5.81934 32.0306 5.95817C32.7002 6.68296 33.2883 7.47294 33.7561 8.34546C34.0695 8.9269 34.3228 9.53459 34.4729 10.177C34.739 11.3272 34.6575 12.4513 34.1597 13.5277C33.8248 14.2524 33.3569 14.8817 32.7603 15.4112C32.4341 15.702 32.1122 16.0016 31.7773 16.2794C31.0348 16.8913 30.245 17.4425 29.4423 17.9721C27.8413 19.0311 26.1844 19.9946 24.4975 20.9061C23.5446 21.4225 22.5789 21.9129 21.6217 22.4165C21.5959 22.4295 21.5659 22.4468 21.5358 22.4556C21.4328 22.4859 21.3512 22.4209 21.3685 22.3122C21.3727 22.2689 21.3943 22.2254 21.4114 22.1864C21.6303 21.722 21.8449 21.2575 22.0638 20.7976C22.8105 19.2547 23.6079 17.7377 24.4546 16.2489C25.3351 14.6991 26.2612 13.1764 27.2318 11.683C28.2147 10.1726 29.2363 8.68817 30.3136 7.24296C30.7128 6.70484 31.1292 6.17955 31.537 5.64565C31.5627 5.62407 31.5885 5.59359 31.6272 5.5459Z" fill="#4F4F4F"/>
<path d="M6.02125 5.5459C6.14567 5.70209 6.26577 5.84967 6.38185 6.00163C7.50204 7.43823 8.56239 8.92267 9.5796 10.4331C10.8414 12.3037 12.0305 14.2177 13.1422 16.1839C13.7603 17.2689 14.3526 18.3714 14.9192 19.4825C15.3785 20.3895 15.8249 21.3054 16.2455 22.2298C16.2584 22.2601 16.2712 22.2863 16.2842 22.3166C16.3142 22.4165 16.2412 22.5033 16.1382 22.4771C16.0996 22.4685 16.061 22.4468 16.0266 22.4295C14.8873 21.8567 13.7597 21.2605 12.6443 20.6413C11.3952 19.9512 10.1591 19.2308 8.95291 18.4669C7.91844 17.8071 6.90109 17.1213 5.94387 16.3532C5.58773 16.0666 5.24857 15.7628 4.91803 15.4547C4.67351 15.2247 4.43302 14.9946 4.22273 14.7299C3.66033 14.0225 3.26982 13.2325 3.10239 12.3384C2.95655 11.5442 3.00372 10.7586 3.22264 9.98171C3.43724 9.23067 3.77209 8.53198 4.17987 7.87223C4.682 7.06067 5.27014 6.31415 5.93107 5.63267C5.96127 5.60671 5.98687 5.58061 6.02125 5.5459Z" fill="#4F4F4F"/>
<path d="M36.9454 15.0249C36.9582 15.0638 36.9711 15.0943 36.9841 15.129C37.1297 15.5999 37.2204 16.0864 37.2545 16.5786C37.3274 17.6333 37.1814 18.6576 36.7951 19.6385C36.4775 20.4414 36.0096 21.1533 35.4173 21.7827C34.9101 22.3217 34.3183 22.7719 33.6661 23.115C33.1811 23.3711 32.6702 23.5404 32.1423 23.6706C31.7131 23.7748 31.2752 23.8485 30.8288 23.8442C30.5499 23.8442 30.2751 23.8573 29.9961 23.8573C27.498 23.8615 25.0041 23.8615 22.506 23.8615H22.3944C22.3429 23.8573 22.2999 23.8312 22.2828 23.7791C22.2613 23.7271 22.2741 23.675 22.3128 23.6359C22.3386 23.6098 22.373 23.5881 22.403 23.5665C23.1756 23.0629 23.9483 22.5552 24.7294 22.0647C26.3648 21.0362 28.0258 20.0595 29.7 19.0916C31.9362 17.7982 34.1896 16.5353 36.4561 15.294C36.5891 15.2202 36.7221 15.1508 36.8552 15.077C36.8766 15.0595 36.9067 15.0465 36.9454 15.0249Z" fill="#4F4F4F"/>
<path d="M0.704098 15.0464C0.862892 15.1333 1.00874 15.2071 1.15042 15.2895C3.69157 16.674 6.21545 18.0847 8.71776 19.5429C10.3532 20.4934 11.9799 21.4613 13.5768 22.4769C14.1434 22.8372 14.7013 23.2104 15.2636 23.5794C15.2936 23.6011 15.328 23.6228 15.3494 23.6488C15.4139 23.727 15.3752 23.8355 15.2765 23.8572C15.2508 23.8614 15.2207 23.8614 15.1949 23.8614C14.7357 23.8614 14.2764 23.8614 13.8127 23.8658C13.1905 23.8702 12.5724 23.8702 11.95 23.8746C11.5336 23.8746 11.1172 23.8788 10.7051 23.8788C9.84241 23.8788 8.97968 23.8832 8.12127 23.8832C7.70055 23.8832 7.28415 23.8875 6.86357 23.8702C6.09952 23.8441 5.35689 23.6965 4.64448 23.4145C3.09494 22.7982 1.94037 21.7347 1.14193 20.2634C0.781337 19.5951 0.558104 18.8833 0.446488 18.1324C0.369248 17.6028 0.347817 17.0733 0.394995 16.5438C0.43362 16.0664 0.52431 15.5947 0.665406 15.1375C0.678351 15.1072 0.686981 15.0855 0.704098 15.0464Z" fill="#4F4F4F"/>
<path d="M65.1422 24.1593C64.9021 24.1203 64.6523 24.0912 64.4121 24.0522C63.4994 23.9061 62.6443 23.6041 61.8853 23.0391C60.9343 22.328 60.3481 21.354 60.0311 20.2143C59.8198 19.4643 59.7429 18.7045 59.7429 17.9252V10.1619V9.93788C59.9256 9.8794 62.26 9.86963 62.5386 9.92811V17.9545C62.5386 18.5097 62.6156 19.0551 62.8077 19.5811C63.2016 20.6527 63.9893 21.237 65.0847 21.4027C65.6515 21.4904 66.2182 21.461 66.7754 21.3151C67.6593 21.0715 68.2646 20.5162 68.6009 19.6494C68.8123 19.0942 68.8795 18.4999 68.8795 17.9058V10.2106V9.93788C69.062 9.8794 71.3966 9.85986 71.6561 9.91834C71.6561 9.98659 71.6656 10.0645 71.6656 10.1423C71.6656 12.7723 71.6752 15.3926 71.6656 18.0226C71.6656 18.9674 71.512 19.8831 71.166 20.7597C70.5224 22.4059 69.331 23.4385 67.6593 23.8865C67.2751 23.9937 66.8715 24.0229 66.4777 24.0911C66.3913 24.1008 66.3143 24.1203 66.2279 24.1399C65.8821 24.1593 65.5169 24.1593 65.1422 24.1593ZM104.532 9.90857H107.395C107.376 9.99621 107.357 10.0839 107.328 10.1521C106.828 11.6034 106.329 13.0645 105.829 14.516C104.792 17.5453 103.754 20.5747 102.707 23.6041C102.582 23.984 102.659 23.9353 102.245 23.945H100.468C100.257 23.945 100.257 23.945 100.18 23.7307C99.1809 20.8182 98.1914 17.9058 97.1922 14.9932C97.1634 14.9251 97.1345 14.8568 97.0865 14.7205C97.0385 14.8374 97.0097 14.9057 96.9809 14.9738C96.5101 16.3569 96.0297 17.7401 95.559 19.1233C95.0401 20.6429 94.5213 22.1721 94.0027 23.6917C93.9161 23.9547 93.9546 23.9547 93.6471 23.9547H91.8217C91.5911 23.9547 91.5911 23.9547 91.5143 23.7307C89.9579 19.2012 88.4016 14.662 86.8356 10.1326C86.8163 10.0742 86.7971 10.0158 86.7779 9.93788H89.7369C90.7456 13.123 91.7642 16.3179 92.7729 19.5226H92.8209C92.84 19.4643 92.869 19.4058 92.8881 19.3376C93.8873 16.2888 94.8769 13.2301 95.876 10.1813C95.8952 10.1326 95.9144 10.0742 95.924 10.0255C95.9433 9.93773 96.0105 9.8988 96.0971 9.8988C96.7888 9.8988 97.4805 9.8988 98.1722 9.90857C98.1914 9.90857 98.2202 9.91834 98.2586 9.93773C99.2962 13.1133 100.334 16.3082 101.371 19.5032C101.477 19.4643 101.477 19.3765 101.506 19.3084C101.775 18.4804 102.034 17.6525 102.294 16.8246C103.005 14.5841 103.715 12.3535 104.426 10.1132C104.475 10.0351 104.503 9.97682 104.532 9.90857ZM43.8623 23.8963V9.91834H46.6387C46.6387 10.006 46.6484 10.0938 46.6484 10.1814V15.5485H53.018C53.0276 15.4511 53.0371 15.3537 53.0371 15.2563V10.2106V9.91834H55.7945C55.8425 10.0742 55.8618 23.5943 55.8137 23.8963C55.6216 23.9548 53.2773 23.9548 53.0371 23.8865V18.2565C52.8162 18.198 46.8886 18.198 46.6579 18.2565V23.8865C46.4178 23.9548 44.0736 23.9548 43.8623 23.8963ZM120.163 21.3929V23.8768C119.971 23.9255 110.008 23.9353 109.768 23.8865C109.711 23.7015 109.711 10.1619 109.759 9.92811C109.931 9.8794 119.654 9.86978 119.904 9.91834V12.4022C119.798 12.4119 119.693 12.4217 119.587 12.4217H112.497V15.3148H117.541C117.617 15.5192 117.627 17.6135 117.55 17.8668H112.526C112.468 18.0908 112.458 21.1494 112.526 21.3832C115.052 21.3929 117.589 21.3929 120.163 21.3929ZM87.7868 23.9061C87.6811 23.9159 87.6138 23.9157 87.5466 23.9157C86.7299 23.9157 85.9133 23.9061 85.1063 23.9255C84.9141 23.9255 84.8373 23.8574 84.77 23.6917C84.4339 22.8736 84.0783 22.0651 83.7422 21.2468C83.6652 21.0715 83.5787 21.0033 83.3866 21.0033C81.4267 21.013 79.4668 21.013 77.507 21.0033C77.3244 21.0033 77.2379 21.052 77.1611 21.2273C76.8248 22.0455 76.4597 22.854 76.1138 23.6625C76.0754 23.7404 76.0467 23.8184 76.0082 23.8963H73.1741C73.2125 23.8087 73.2317 23.7307 73.2606 23.6625C74.4711 20.8865 75.672 18.1104 76.8825 15.3245C77.6432 13.5785 78.4022 11.8316 79.1594 10.084C79.2267 9.93788 79.2939 9.86963 79.4668 9.86963C80.1394 9.8794 80.8214 9.8794 81.494 9.86963C81.6862 9.86963 81.763 9.93788 81.8398 10.1034C82.7429 12.1976 83.6461 14.2823 84.5491 16.3667C85.5963 18.7726 86.6338 21.1883 87.6811 23.5943C87.7004 23.7015 87.7388 23.7891 87.7868 23.9061ZM82.5508 18.4416C82.5316 18.3831 82.522 18.3246 82.4931 18.2759C82.349 17.9349 82.205 17.5844 82.0609 17.2434C81.5612 16.055 81.052 14.8765 80.5428 13.688C80.514 13.6199 80.5044 13.5225 80.3987 13.4736C79.6974 15.1297 79.0056 16.7759 78.3043 18.4318C78.5349 18.4901 82.3298 18.4999 82.5508 18.4416ZM123.593 9.88917H126.264L126.293 9.91834C126.302 9.92811 126.302 9.92811 126.302 9.93788C126.312 14.4965 126.312 19.0551 126.312 23.6138C126.312 23.6917 126.312 23.7696 126.302 23.8476C126.302 23.8574 126.293 23.8768 126.274 23.8963H123.574C123.593 19.2305 123.593 14.5744 123.593 9.88903V9.88917Z" fill="#4F4F4F"/>
</g>
<defs>
<clipPath id="clip0_1123_504">
<rect width="126" height="28" fill="white" transform="translate(0.370117 0.608398)"/>
</clipPath>
</defs>
</svg>
